<svg data-v-fde0c5aa="" xmlns="http://www.w3.org/2000/svg" viewBox="0 0 300 300" class="iconLeftSlogan"><!----><defs data-v-fde0c5aa=""><!----></defs><rect data-v-fde0c5aa="" fill="transparent" x="0" y="0" width="300px" height="300px" class="logo-background-square"></rect><defs data-v-fde0c5aa=""><!----></defs><g data-v-fde0c5aa="" id="b7a63690-8a76-4311-8ac0-4fac9c862e6b" fill="#000000" transform="matrix(3.143642349728547,0,0,3.143642349728547,120.57947089599729,114.9923253477503)"><path d="M6.75 10.81Q6.75 10.78 6.80 10.78L6.80 10.78Q6.85 10.78 6.88 10.80Q6.92 10.82 6.92 10.84L6.92 10.84Q6.78 11.84 6.78 12.73L6.78 12.73Q6.78 12.84 6.73 12.89Q6.69 12.94 6.57 12.94L6.57 12.94L0.60 12.94Q0.56 12.94 0.56 12.85Q0.56 12.77 0.60 12.77L0.60 12.77Q1.11 12.77 1.33 12.70Q1.55 12.63 1.64 12.43Q1.72 12.22 1.72 11.80L1.72 11.80L1.72 5.32Q1.72 4.90 1.64 4.70Q1.55 4.51 1.32 4.43Q1.09 4.35 0.60 4.35L0.60 4.35Q0.56 4.35 0.56 4.27Q0.56 4.19 0.60 4.19L0.60 4.19L6.31 4.19Q6.45 4.19 6.45 4.31L6.45 4.31L6.48 6.08Q6.48 6.12 6.41 6.13Q6.33 6.13 6.31 6.09L6.31 6.09Q6.22 5.32 5.77 4.92Q5.32 4.52 4.59 4.52L4.59 4.52L3.88 4.52Q3.26 4.52 3.05 4.70Q2.84 4.87 2.84 5.38L2.84 5.38L2.84 8.22L4.38 8.22Q5.10 8.22 5.43 7.97Q5.77 7.73 5.77 7.21L5.77 7.21Q5.77 7.18 5.84 7.18Q5.92 7.18 5.92 7.21L5.92 7.21L5.91 8.39L5.92 9.02Q5.95 9.46 5.95 9.72L5.95 9.72Q5.95 9.74 5.87 9.74Q5.78 9.74 5.78 9.72L5.78 9.72Q5.78 9.11 5.44 8.83Q5.10 8.54 4.34 8.54L4.34 8.54L2.84 8.54L2.84 11.75Q2.84 12.25 3.03 12.43Q3.22 12.61 3.79 12.61L3.79 12.61L4.70 12.61Q5.50 12.61 6.03 12.14Q6.55 11.68 6.75 10.81L6.75 10.81ZM14.64 12.11L14.67 12.10Q14.71 12.10 14.74 12.17Q14.77 12.24 14.73 12.26L14.73 12.26L13.06 13.06Q12.98 13.09 12.96 13.09L12.96 13.09Q12.80 13.09 12.67 12.80Q12.54 12.50 12.53 11.98L12.53 11.98Q12.03 12.50 11.48 12.81Q10.93 13.12 10.26 13.12L10.26 13.12Q9.67 13.12 9.17 12.79Q8.67 12.46 8.37 11.84Q8.08 11.23 8.08 10.43L8.08 10.43Q8.08 9.41 8.57 8.71Q9.06 8.02 9.79 7.69Q10.53 7.35 11.27 7.35L11.27 7.35Q11.91 7.35 12.53 7.64L12.53 7.64L12.53 4.62Q12.53 4.10 12.43 3.88Q12.33 3.67 12.08 3.67L12.08 3.67Q11.90 3.67 11.48 3.86L11.48 3.86L11.47 3.86Q11.41 3.86 11.38 3.79Q11.35 3.72 11.40 3.70L11.40 3.70L13.26 2.80Q13.29 2.79 13.33 2.79L13.33 2.79Q13.37 2.79 13.43 2.83Q13.50 2.87 13.50 2.93L13.50 2.93L13.50 11.37Q13.50 11.86 13.60 12.07Q13.71 12.29 13.96 12.29L13.96 12.29Q14.28 12.29 14.64 12.11L14.64 12.11ZM10.88 12.56Q11.35 12.56 11.75 12.34Q12.14 12.12 12.53 11.73L12.53 11.73L12.53 8.53Q12.24 8.11 11.85 7.88Q11.47 7.66 10.95 7.66L10.95 7.66Q10.11 7.66 9.63 8.25Q9.16 8.83 9.16 10.00L9.16 10.00Q9.16 11.17 9.64 11.87Q10.12 12.56 10.88 12.56L10.88 12.56ZM21.60 12.10L21.62 12.10Q21.67 12.10 21.70 12.16Q21.73 12.22 21.69 12.25L21.69 12.25L19.95 13.08Q19.92 13.09 19.88 13.09L19.88 13.09Q19.75 13.09 19.63 12.76Q19.50 12.43 19.50 11.90L19.50 11.90Q18.47 13.06 17.35 13.06L17.35 13.06Q16.63 13.06 16.22 12.61Q15.81 12.15 15.81 11.34L15.81 11.34L15.81 9.23Q15.81 8.69 15.71 8.46Q15.61 8.23 15.39 8.23L15.39 8.23Q15.19 8.23 14.95 8.34L14.95 8.34L14.92 8.34Q14.88 8.34 14.86 8.27Q14.84 8.20 14.88 8.19L14.88 8.19L16.53 7.42L16.59 7.41Q16.65 7.41 16.70 7.45Q16.76 7.49 16.76 7.55L16.76 7.55L16.76 10.81Q16.76 12.39 17.93 12.39L17.93 12.39Q18.33 12.39 18.75 12.19Q19.17 12.00 19.50 11.65L19.50 11.65L19.50 9.23Q19.50 8.69 19.40 8.46Q19.31 8.23 19.08 8.23L19.08 8.23Q18.90 8.23 18.63 8.34L18.63 8.34L18.61 8.34Q18.56 8.34 18.55 8.27Q18.54 8.20 18.58 8.19L18.58 8.19L20.23 7.42L20.29 7.41Q20.34 7.41 20.40 7.45Q20.45 7.49 20.45 7.55L20.45 7.55L20.45 11.40Q20.45 11.87 20.56 12.08Q20.66 12.29 20.92 12.29L20.92 12.29Q21.14 12.29 21.60 12.10L21.60 12.10ZM28.17 4.31L28.20 6.08Q28.20 6.12 28.12 6.13Q28.04 6.13 28.03 6.09L28.03 6.09Q27.93 5.32 27.48 4.92Q27.03 4.52 26.31 4.52L26.31 4.52L25.59 4.52Q24.99 4.52 24.77 4.69Q24.56 4.86 24.56 5.33L24.56 5.33L24.56 8.39L25.84 8.39Q26.60 8.39 26.96 8.13Q27.31 7.88 27.31 7.38L27.31 7.38Q27.31 7.35 27.40 7.35Q27.48 7.35 27.48 7.38L27.48 7.38L27.47 8.55Q27.47 8.97 27.48 9.18L27.48 9.18L27.50 9.88Q27.50 9.91 27.41 9.91Q27.33 9.91 27.33 9.88L27.33 9.88Q27.33 9.28 26.96 8.99Q26.60 8.71 25.80 8.71L25.80 8.71L24.56 8.71L24.56 11.75Q24.56 12.19 24.67 12.40Q24.79 12.60 25.13 12.68Q25.47 12.77 26.19 12.77L26.19 12.77Q26.22 12.77 26.22 12.85Q26.22 12.94 26.19 12.94L26.19 12.94Q25.62 12.94 25.30 12.92L25.30 12.92L23.98 12.91L23.00 12.92Q22.74 12.94 22.26 12.94L22.26 12.94Q22.23 12.94 22.23 12.85Q22.23 12.77 22.26 12.77L22.26 12.77Q22.78 12.77 23.02 12.70Q23.27 12.63 23.35 12.43Q23.44 12.22 23.44 11.80L23.44 11.80L23.44 5.32Q23.44 4.90 23.35 4.70Q23.27 4.51 23.04 4.43Q22.81 4.35 22.32 4.35L22.32 4.35Q22.27 4.35 22.27 4.27Q22.27 4.19 22.32 4.19L22.32 4.19L28.03 4.19Q28.17 4.19 28.17 4.31L28.17 4.31ZM29.43 12.94Q29.40 12.94 29.40 12.85Q29.40 12.77 29.43 12.77L29.43 12.77Q29.95 12.77 30.11 12.58Q30.27 12.39 30.27 11.80L30.27 11.80L30.28 4.61Q30.28 4.10 30.18 3.88Q30.09 3.67 29.85 3.67L29.85 3.67Q29.61 3.67 29.25 3.85L29.25 3.85L29.22 3.85Q29.18 3.85 29.15 3.78Q29.12 3.71 29.16 3.70L29.16 3.70L31.04 2.80L31.09 2.79Q31.15 2.79 31.21 2.83Q31.26 2.87 31.26 2.93L31.26 2.93L31.26 11.80Q31.26 12.39 31.42 12.58Q31.58 12.77 32.09 12.77L32.09 12.77Q32.14 12.77 32.14 12.85Q32.14 12.94 32.09 12.94L32.09 12.94Q31.77 12.94 31.57 12.92L31.57 12.92L30.76 12.91L29.97 12.92Q29.78 12.94 29.43 12.94L29.43 12.94ZM37.73 12.11L37.74 12.11Q37.79 12.11 37.82 12.16Q37.86 12.21 37.83 12.25L37.83 12.25Q37.34 12.70 36.83 12.90Q36.32 13.10 35.73 13.10L35.73 13.10Q34.89 13.10 34.28 12.73Q33.67 12.36 33.35 11.75Q33.04 11.13 33.04 10.42L33.04 10.42Q33.04 9.59 33.44 8.90Q33.84 8.20 34.54 7.80Q35.25 7.41 36.11 7.41L36.11 7.41Q36.89 7.41 37.32 7.78Q37.76 8.15 37.76 8.79L37.76 8.79Q37.76 9.14 37.60 9.14L37.60 9.14L36.93 9.14L34.17 9.17Q34.12 9.45 34.12 9.86L34.12 9.86Q34.12 11.06 34.70 11.80Q35.28 12.54 36.30 12.54L36.30 12.54Q37.11 12.54 37.73 12.11L37.73 12.11ZM35.62 7.69Q35.10 7.69 34.73 8.02Q34.37 8.34 34.22 8.95L34.22 8.95L36.62 8.89Q36.61 8.33 36.34 8.01Q36.08 7.69 35.62 7.69L35.62 7.69ZM44.32 12.77Q44.35 12.77 44.35 12.85Q44.35 12.94 44.32 12.94L44.32 12.94L43.86 12.92Q43.69 12.91 43.39 12.91L43.39 12.91L42.45 12.92Q42.25 12.94 41.89 12.94L41.89 12.94Q41.85 12.94 41.85 12.85Q41.85 12.77 41.89 12.77L41.89 12.77Q42.31 12.77 42.31 12.59L42.31 12.59Q42.31 12.47 42.14 12.22L42.14 12.22L41.12 10.68L40.39 11.73Q40.10 12.18 40.10 12.40L40.10 12.40Q40.10 12.77 40.84 12.77L40.84 12.77Q40.88 12.77 40.88 12.85Q40.88 12.94 40.84 12.94L40.84 12.94Q40.46 12.94 40.28 12.92L40.28 12.92L39.44 12.91L38.92 12.92Q38.77 12.94 38.44 12.94L38.44 12.94Q38.42 12.94 38.42 12.85Q38.42 12.77 38.44 12.77L38.44 12.77Q38.84 12.77 39.28 12.47Q39.73 12.18 40.11 11.65L40.11 11.65L40.96 10.46L39.79 8.69Q39.47 8.19 39.12 7.94Q38.78 7.70 38.51 7.70L38.51 7.70Q38.49 7.70 38.49 7.62Q38.49 7.53 38.51 7.53L38.51 7.53Q38.81 7.53 38.95 7.55L38.95 7.55L39.38 7.56L40.32 7.55Q40.52 7.53 40.88 7.53L40.88 7.53Q40.91 7.53 40.91 7.62Q40.91 7.70 40.88 7.70L40.88 7.70Q40.67 7.70 40.57 7.74Q40.47 7.78 40.47 7.88L40.47 7.88Q40.47 7.99 40.64 8.25L40.64 8.25L41.57 9.63L42.17 8.74Q42.48 8.27 42.48 8.05L42.48 8.05Q42.48 7.87 42.29 7.78Q42.11 7.70 41.72 7.70L41.72 7.70Q41.69 7.70 41.69 7.62Q41.69 7.53 41.72 7.53L41.72 7.53Q42.10 7.53 42.29 7.55L42.29 7.55L43.13 7.56L43.65 7.55Q43.81 7.53 44.13 7.53L44.13 7.53Q44.16 7.53 44.16 7.62Q44.16 7.70 44.13 7.70L44.13 7.70Q43.74 7.70 43.30 7.99Q42.87 8.27 42.46 8.82L42.46 8.82L41.71 9.86L42.98 11.77Q43.32 12.29 43.67 12.53Q44.03 12.77 44.32 12.77L44.32 12.77Z"></path></g><defs data-v-fde0c5aa=""><linearGradient data-v-fde0c5aa="" gradientTransform="rotate(25)" id="d7418734-87ec-4d92-9fd1-bad7186b37b0" x1="0%" y1="0%" x2="100%" y2="0%"><stop data-v-fde0c5aa="" offset="0%" stop-color="#E90DDA" stop-opacity="1"></stop><stop data-v-fde0c5aa="" offset="100%" stop-color="#15CFF1" stop-opacity="1"></stop></linearGradient></defs><g data-v-fde0c5aa="" id="928e042a-133a-4645-b38e-cb2f48abba67" stroke="none" fill="url(#d7418734-87ec-4d92-9fd1-bad7186b37b0)" transform="matrix(2.1668722068543844,0,0,2.1668722068543844,40,115.33004469032986)"><path d="M16 32c8.837 0 16-7.163 16-16S24.837 0 16 0 0 7.163 0 16s7.163 16 16 16zM14.817 6.421h2v8.886h8.887v2H14.817V6.421zm-5.959.437h2v14.283h14.283v2H8.858V6.858z"></path></g><defs data-v-fde0c5aa=""><!----></defs><g data-v-fde0c5aa="" id="65f51321-a716-4ad3-8b06-139e225fe671" fill="#000000" transform="matrix(0.4656656912739936,0,0,0.4656656912739936,121.85561831817908,164.03431388781965)"><path d="M6.62 14.38L6.62 14.38Q6.97 14.98 6.97 15.54L6.97 15.54Q6.97 15.67 6.95 15.77Q6.93 15.88 6.90 15.99L6.90 15.99Q6.66 15.96 6.41 15.95Q6.15 15.93 5.87 15.93L5.87 15.93Q5.53 15.93 5.19 15.95Q4.84 15.97 4.42 16.02Q4.00 16.06 3.49 16.13Q2.97 16.20 2.28 16.31L2.28 16.31Q1.96 16.20 1.64 15.87Q1.32 15.54 1.04 15.08L1.04 15.08Q1.18 14.77 1.39 14.31Q1.60 13.86 1.88 13.21Q2.16 12.56 2.50 11.68Q2.84 10.81 3.23 9.66L3.23 9.66Q3.49 8.90 3.67 8.33Q3.85 7.76 4.00 7.22Q4.14 6.68 4.28 6.09Q4.42 5.50 4.59 4.73L4.59 4.73Q5.15 4.84 5.57 5.14Q5.98 5.45 6.36 6.01L6.36 6.01Q6.24 6.19 6.06 6.59Q5.88 7 5.63 7.58Q5.39 8.16 5.10 8.90Q4.80 9.63 4.48 10.47L4.48 10.47Q4.17 11.30 3.88 12.03Q3.58 12.75 3.35 13.34Q3.12 13.93 2.98 14.35Q2.84 14.77 2.84 14.98L2.84 14.98Q3.07 14.97 3.25 14.95Q3.43 14.94 3.63 14.90Q3.82 14.87 4.05 14.82Q4.28 14.77 4.61 14.69L4.61 14.69Q4.89 14.62 5.12 14.57Q5.36 14.52 5.59 14.48Q5.82 14.45 6.07 14.43Q6.31 14.41 6.62 14.38ZM21.04 9.21L21.04 9.21Q21.50 9.21 21.76 9.46Q22.02 9.72 22.02 10.16L22.02 10.16Q22.02 10.28 22.00 10.39Q21.98 10.51 21.95 10.60L21.95 10.60Q21.77 10.57 21.55 10.55Q21.32 10.53 21.01 10.53L21.01 10.53Q20.41 10.53 19.80 10.63Q19.18 10.74 18.62 10.81L18.62 10.81Q18.30 11.55 18.03 12.24Q17.77 12.94 17.58 13.51Q17.39 14.08 17.28 14.50Q17.18 14.92 17.16 15.13L17.16 15.13Q18.30 14.90 19.45 14.73Q20.61 14.56 21.88 14.48L21.88 14.48Q22.04 14.71 22.14 14.99Q22.25 15.27 22.25 15.60L22.25 15.60Q22.25 15.68 22.25 15.78Q22.25 15.88 22.22 15.97L22.22 15.97Q21.83 15.96 21.39 15.95Q20.96 15.95 20.26 15.95L20.26 15.95Q19.80 15.95 19.38 15.97Q18.97 15.99 18.55 16.03Q18.13 16.07 17.66 16.14Q17.19 16.21 16.60 16.31L16.60 16.31Q15.96 16.06 15.36 15.08L15.36 15.08Q15.60 14.57 16.02 13.54Q16.45 12.52 17.11 10.79L17.11 10.79Q16.48 10.60 16.28 10.09L16.28 10.09Q16.35 10.02 16.69 9.92Q17.02 9.81 17.51 9.70L17.51 9.70Q17.72 9.16 17.87 8.75Q18.02 8.34 18.13 7.99Q18.24 7.63 18.33 7.29Q18.42 6.94 18.51 6.54L18.51 6.54Q18.02 6.51 17.74 6.27Q17.46 6.02 17.46 5.63L17.46 5.63Q17.46 5.52 17.49 5.36Q17.53 5.21 17.57 5.10L17.57 5.10Q17.85 5.14 18.11 5.15Q18.37 5.17 18.79 5.17L18.79 5.17Q19.67 5.17 20.44 5.12Q21.21 5.07 21.83 5.01Q22.46 4.96 22.90 4.91Q23.35 4.86 23.59 4.86L23.59 4.86Q23.91 4.86 24.16 5.19Q24.42 5.53 24.54 6.15L24.54 6.15Q24.11 6.10 23.84 6.09Q23.56 6.08 23.35 6.08L23.35 6.08Q22.58 6.08 21.95 6.15Q21.31 6.23 20.72 6.31L20.72 6.31Q20.64 6.44 20.53 6.64Q20.43 6.83 20.26 7.18Q20.09 7.53 19.84 8.06Q19.60 8.60 19.25 9.39L19.25 9.39Q19.78 9.31 20.25 9.26Q20.72 9.21 21.04 9.21ZM31.42 16.24L31.42 16.24Q30.74 16.04 30.48 15.85Q30.23 15.65 30.23 15.36L30.23 15.36Q30.23 15.13 30.35 14.73Q30.48 14.32 30.72 13.77Q30.97 13.22 31.31 12.54Q31.65 11.87 32.09 11.10L32.09 11.10Q31.72 11.09 31.44 11.08Q31.15 11.07 30.97 11.07L30.97 11.07Q31.05 10.86 31.44 10.71Q31.84 10.56 32.48 10.44L32.48 10.44Q33.03 9.53 33.65 8.71Q34.27 7.88 34.90 7.19Q35.53 6.50 36.16 5.97Q36.79 5.45 37.37 5.14L37.37 5.14Q37.38 5.04 37.39 4.97Q37.39 4.90 37.39 4.87L37.39 4.87Q37.59 4.87 37.92 4.97Q38.25 5.07 38.56 5.21Q38.88 5.35 39.12 5.49Q39.37 5.64 39.40 5.74L39.40 5.74Q38.93 6.55 38.49 8.17Q38.04 9.79 37.74 12.04L37.74 12.04Q37.67 12.60 37.63 13.31Q37.58 14.03 37.58 14.91L37.58 14.91Q37.58 15.22 37.58 15.54Q37.58 15.86 37.60 16.21L37.60 16.21Q37.58 16.23 37.55 16.23Q37.52 16.23 37.44 16.23L37.44 16.23Q37.24 16.23 36.98 16.16Q36.72 16.10 36.48 16.01Q36.23 15.92 36.06 15.81Q35.88 15.69 35.84 15.61L35.84 15.61Q35.83 15.43 35.83 15.25Q35.83 15.08 35.83 14.88L35.83 14.88Q35.83 14.01 35.89 13.12Q35.95 12.22 36.11 11.27L36.11 11.27Q35.91 11.26 35.59 11.23Q35.27 11.21 34.87 11.20Q34.47 11.19 34.01 11.16Q33.56 11.14 33.12 11.13L33.12 11.13Q32.79 11.76 32.49 12.38Q32.20 13.01 31.99 13.64L31.99 13.64Q31.75 14.31 31.61 14.98Q31.46 15.65 31.42 16.24ZM36.82 7.83L36.82 7.83Q36.88 7.63 36.95 7.29Q37.03 6.94 37.10 6.57L37.10 6.57Q36.75 6.69 36.32 7.03Q35.90 7.36 35.44 7.86Q34.99 8.36 34.52 8.98Q34.05 9.60 33.61 10.30L33.61 10.30Q34.79 10.21 36.29 10.18L36.29 10.18Q36.40 9.59 36.53 9.01Q36.67 8.43 36.82 7.83ZM56.29 7.46L56.29 7.46Q56.29 8.13 55.99 8.73Q55.69 9.32 55.16 9.79Q54.63 10.26 53.91 10.58Q53.20 10.91 52.36 11.02L52.36 11.02Q52.57 11.65 52.87 12.31Q53.17 12.98 53.52 13.59Q53.87 14.21 54.25 14.73Q54.63 15.25 54.99 15.58L54.99 15.58Q54.92 15.72 54.79 15.86Q54.66 16.00 54.48 16.12Q54.31 16.24 54.12 16.32Q53.93 16.39 53.76 16.39L53.76 16.39Q53.45 16.39 53.17 16.10Q52.89 15.81 52.60 15.17Q52.32 14.53 52.00 13.52Q51.69 12.50 51.31 11.07L51.31 11.07Q51.16 11.07 51.00 11.07Q50.85 11.07 50.76 11.05L50.76 11.05Q50.67 10.99 50.55 10.85L50.55 10.85Q50.18 11.66 49.88 12.38Q49.59 13.09 49.36 13.76Q49.13 14.42 48.95 15.04Q48.78 15.67 48.65 16.31L48.65 16.31Q48.17 16.20 47.82 15.90Q47.47 15.61 47.17 15.08L47.17 15.08Q47.22 14.95 47.28 14.83Q47.35 14.71 47.45 14.50Q47.54 14.28 47.69 13.94Q47.84 13.61 48.08 13.05Q48.33 12.49 48.67 11.68Q49.01 10.86 49.50 9.70L49.50 9.70Q49.73 9.18 49.89 8.79Q50.05 8.40 50.18 8.04Q50.30 7.69 50.41 7.33Q50.51 6.97 50.62 6.51L50.62 6.51Q49.98 6.73 49.43 7.01Q48.87 7.28 48.51 7.59L48.51 7.59Q48.38 7.50 48.25 7.34Q48.12 7.17 48.01 6.96Q47.89 6.76 47.81 6.55Q47.73 6.34 47.71 6.17L47.71 6.17Q48.13 5.89 48.74 5.66Q49.35 5.42 50.04 5.24Q50.72 5.07 51.44 4.97Q52.15 4.87 52.77 4.87L52.77 4.87Q54.45 4.87 55.37 5.56Q56.29 6.26 56.29 7.46ZM52.71 6.02L52.88 6.29Q52.78 6.41 52.57 6.79Q52.36 7.17 52.09 7.69Q51.81 8.22 51.51 8.83Q51.21 9.45 50.93 10.05L50.93 10.05Q51.98 10.05 52.86 9.86Q53.75 9.66 54.39 9.30Q55.03 8.95 55.39 8.46Q55.75 7.98 55.75 7.39L55.75 7.39Q55.75 6.69 55.24 6.32Q54.74 5.95 53.69 5.95L53.69 5.95Q53.45 5.95 53.21 5.97Q52.98 5.99 52.71 6.02L52.71 6.02ZM64.69 16.24L64.69 16.24Q63.90 16.00 63.62 15.79Q63.34 15.57 63.34 15.19L63.34 15.19Q63.34 14.77 63.53 14.01Q63.73 13.24 64.04 12.31Q64.36 11.37 64.76 10.35Q65.17 9.32 65.59 8.39Q66.01 7.45 66.41 6.67Q66.81 5.89 67.12 5.46L67.12 5.46L67.02 4.87Q67.21 4.87 67.56 4.97Q67.91 5.07 68.27 5.21Q68.63 5.35 68.90 5.49Q69.17 5.64 69.20 5.74L69.20 5.74Q69.13 6.08 69.09 6.76Q69.05 7.43 69.05 8.20L69.05 8.20Q69.05 9.73 69.17 11.19Q69.29 12.66 69.72 14.17L69.72 14.17Q69.94 13.05 70.20 11.94Q70.46 10.82 70.74 9.81Q71.02 8.79 71.30 7.92Q71.58 7.06 71.84 6.40Q72.10 5.75 72.32 5.38Q72.55 5.01 72.73 4.98L72.73 4.98Q72.88 5.01 73.07 5.10Q73.25 5.19 73.42 5.32Q73.58 5.45 73.72 5.60Q73.86 5.75 73.95 5.91L73.95 5.91Q73.50 6.09 73.06 6.76Q72.62 7.43 72.22 8.39Q71.82 9.35 71.48 10.47Q71.13 11.59 70.88 12.68Q70.62 13.76 70.47 14.69Q70.32 15.61 70.31 16.17L70.31 16.17Q70.31 16.20 70.32 16.21L70.32 16.21Q70.28 16.23 70.23 16.23Q70.18 16.23 70.14 16.23L70.14 16.23Q69.50 16.23 69.00 16.07Q68.50 15.90 68.35 15.61L68.35 15.61Q68.05 14.43 67.86 13.34Q67.66 12.25 67.53 11.16Q67.40 10.07 67.32 8.95Q67.24 7.84 67.20 6.62L67.20 6.62Q66.93 7.04 66.64 7.72Q66.35 8.40 66.07 9.21Q65.79 10.02 65.53 10.92Q65.27 11.82 65.07 12.67Q64.88 13.52 64.76 14.29Q64.65 15.05 64.65 15.61L64.65 15.61Q64.65 15.90 64.66 16.03Q64.67 16.16 64.69 16.24ZM80.35 15.71L80.35 15.71Q80.12 15.68 79.88 15.52Q79.63 15.36 79.56 15.16L79.56 15.16Q79.56 14.99 79.61 14.73Q79.66 14.46 79.73 14.19Q79.80 13.92 79.87 13.67Q79.94 13.43 79.97 13.30L79.97 13.30Q80.14 13.30 80.40 13.38Q80.65 13.47 80.93 13.62Q81.20 13.76 81.45 13.95Q81.69 14.14 81.82 14.34L81.82 14.34Q81.69 14.62 81.49 14.87Q81.30 15.12 81.08 15.31Q80.86 15.50 80.67 15.60Q80.47 15.71 80.35 15.71ZM108.47 10.72L108.47 10.72Q108.84 10.72 109.05 10.98Q109.26 11.23 109.26 11.68L109.26 11.68Q109.26 11.79 109.24 11.91Q109.23 12.03 109.20 12.11L109.20 12.11Q108.91 12.04 108.56 12.03L108.56 12.03Q108.47 12.64 108.11 13.32Q107.74 14 107.23 14.60Q106.71 15.19 106.09 15.64Q105.48 16.09 104.87 16.24L104.87 16.24Q103.00 16.20 102.14 15.27Q101.28 14.34 101.28 12.36L101.28 12.36Q101.28 10.92 101.81 9.57Q102.34 8.22 103.22 7.17Q104.10 6.12 105.24 5.48Q106.39 4.84 107.62 4.84L107.62 4.84Q108.58 4.84 109.12 5.25Q109.66 5.66 109.66 6.40L109.66 6.40Q109.66 6.89 109.43 7.31Q109.20 7.73 108.67 8.22L108.67 8.22Q108.35 8.12 108.11 7.88Q107.87 7.63 107.81 7.31L107.81 7.31Q108.29 6.96 108.49 6.66Q108.68 6.37 108.68 5.96L108.68 5.96Q108.68 5.32 107.91 5.32L107.91 5.32Q107.28 5.32 106.56 5.79Q105.84 6.26 105.11 7.14L105.11 7.14Q104.08 8.39 103.60 9.71Q103.12 11.03 103.12 12.68L103.12 12.68Q103.12 13.30 103.25 13.80Q103.38 14.31 103.59 14.69Q103.80 15.06 104.08 15.29Q104.37 15.51 104.71 15.54L104.71 15.54Q105.15 15.44 105.60 15.09Q106.05 14.73 106.42 14.25Q106.79 13.76 107.05 13.21Q107.31 12.66 107.37 12.15L107.37 12.15Q106.97 12.24 106.62 12.31Q106.26 12.39 105.94 12.39L105.94 12.39Q105.52 12.39 105.20 12.18Q104.89 11.97 104.78 11.61L104.78 11.61Q105.03 11.47 105.51 11.31Q105.99 11.16 106.54 11.03Q107.09 10.89 107.61 10.81Q108.14 10.72 108.47 10.72ZM126.34 7.46L126.34 7.46Q126.34 8.13 126.03 8.73Q125.73 9.32 125.20 9.79Q124.67 10.26 123.96 10.58Q123.24 10.91 122.40 11.02L122.40 11.02Q122.61 11.65 122.91 12.31Q123.21 12.98 123.56 13.59Q123.91 14.21 124.29 14.73Q124.67 15.25 125.03 15.58L125.03 15.58Q124.96 15.72 124.83 15.86Q124.70 16.00 124.52 16.12Q124.35 16.24 124.16 16.32Q123.97 16.39 123.80 16.39L123.80 16.39Q123.49 16.39 123.21 16.10Q122.93 15.81 122.65 15.17Q122.36 14.53 122.04 13.52Q121.73 12.50 121.35 11.07L121.35 11.07Q121.20 11.07 121.04 11.07Q120.89 11.07 120.81 11.05L120.81 11.05Q120.71 10.99 120.60 10.85L120.60 10.85Q120.22 11.66 119.92 12.38Q119.63 13.09 119.40 13.76Q119.17 14.42 118.99 15.04Q118.82 15.67 118.69 16.31L118.69 16.31Q118.22 16.20 117.87 15.90Q117.52 15.61 117.21 15.08L117.21 15.08Q117.26 14.95 117.33 14.83Q117.39 14.71 117.49 14.50Q117.59 14.28 117.73 13.94Q117.88 13.61 118.12 13.05Q118.37 12.49 118.71 11.68Q119.06 10.86 119.55 9.70L119.55 9.70Q119.77 9.18 119.93 8.79Q120.09 8.40 120.22 8.04Q120.34 7.69 120.45 7.33Q120.55 6.97 120.67 6.51L120.67 6.51Q120.02 6.73 119.47 7.01Q118.92 7.28 118.55 7.59L118.55 7.59Q118.43 7.50 118.29 7.34Q118.16 7.17 118.05 6.96Q117.94 6.76 117.85 6.55Q117.77 6.34 117.75 6.17L117.75 6.17Q118.17 5.89 118.78 5.66Q119.39 5.42 120.08 5.24Q120.76 5.07 121.48 4.97Q122.19 4.87 122.81 4.87L122.81 4.87Q124.49 4.87 125.41 5.56Q126.34 6.26 126.34 7.46ZM122.75 6.02L122.92 6.29Q122.82 6.41 122.61 6.79Q122.40 7.17 122.13 7.69Q121.86 8.22 121.55 8.83Q121.25 9.45 120.97 10.05L120.97 10.05Q122.02 10.05 122.91 9.86Q123.79 9.66 124.43 9.30Q125.08 8.95 125.43 8.46Q125.79 7.98 125.79 7.39L125.79 7.39Q125.79 6.69 125.29 6.32Q124.78 5.95 123.73 5.95L123.73 5.95Q123.49 5.95 123.26 5.97Q123.02 5.99 122.75 6.02L122.75 6.02ZM139.83 4.98L139.83 4.98Q140.10 5.10 140.38 5.27Q140.66 5.45 140.90 5.63Q141.13 5.81 141.29 5.98Q141.46 6.16 141.47 6.27L141.47 6.27Q141.23 6.22 140.99 6.20Q140.76 6.17 140.56 6.17L140.56 6.17Q139.93 6.17 139.31 6.48Q138.68 6.79 138.12 7.32Q137.56 7.85 137.09 8.57Q136.61 9.28 136.27 10.09Q135.93 10.91 135.73 11.77Q135.53 12.64 135.53 13.48L135.53 13.48Q135.53 14.57 135.90 15.11Q136.26 15.64 136.96 15.64L136.96 15.64Q137.30 15.64 137.69 15.51Q138.08 15.37 138.49 15.13Q138.89 14.90 139.29 14.56Q139.68 14.22 140.01 13.82L140.01 13.82Q140.50 13.23 140.90 12.48Q141.29 11.73 141.56 10.89Q141.83 10.05 141.98 9.16Q142.13 8.27 142.13 7.42L142.13 7.42Q142.13 7.08 142.11 6.85Q142.10 6.62 142.08 6.46Q142.06 6.30 142.04 6.20Q142.03 6.10 142.02 6.03L142.02 6.03Q142.18 6.12 142.39 6.24Q142.59 6.36 142.76 6.59Q142.94 6.82 143.06 7.20Q143.18 7.57 143.18 8.18L143.18 8.18Q143.18 9.16 142.95 10.10Q142.72 11.05 142.30 11.90Q141.89 12.75 141.33 13.50Q140.77 14.24 140.13 14.80L140.13 14.80Q139.29 15.54 138.33 15.95Q137.38 16.35 136.50 16.35L136.50 16.35Q135.21 16.35 134.53 15.53Q133.85 14.71 133.85 13.12L133.85 13.12Q133.85 12.26 134.04 11.31Q134.23 10.36 134.57 9.44Q134.92 8.51 135.39 7.68Q135.87 6.85 136.44 6.21Q137.00 5.57 137.66 5.19Q138.31 4.82 138.99 4.82L138.99 4.82Q139.22 4.82 139.41 4.85Q139.61 4.89 139.83 4.98ZM152.11 15.61L152.11 15.61Q152.04 15.04 152.01 14.36Q151.97 13.68 151.97 13.09L151.97 13.09Q151.97 12.15 152.03 11.29Q152.10 10.43 152.19 9.48Q152.28 8.54 152.39 7.43Q152.50 6.31 152.59 4.86L152.59 4.86Q152.77 4.86 153.11 4.96Q153.45 5.07 153.80 5.21Q154.15 5.35 154.42 5.49Q154.69 5.64 154.73 5.74L154.73 5.74Q154.49 6.29 154.30 7.18Q154.11 8.06 153.99 9.11Q153.86 10.16 153.79 11.27Q153.72 12.38 153.72 13.34L153.72 13.34Q153.72 13.79 153.73 14.22Q153.75 14.66 153.78 15.02L153.78 15.02Q154.07 14.59 154.46 13.78Q154.84 12.98 155.25 11.98Q155.67 10.99 156.08 9.91Q156.49 8.82 156.84 7.83Q157.19 6.85 157.44 6.05Q157.68 5.26 157.78 4.86L157.78 4.86Q157.96 4.86 158.32 4.96Q158.68 5.07 159.02 5.21Q159.36 5.35 159.63 5.49Q159.89 5.64 159.92 5.74L159.92 5.74Q159.68 6.29 159.50 7.18Q159.31 8.06 159.18 9.11Q159.05 10.16 158.98 11.27Q158.91 12.38 158.91 13.34L158.91 13.34Q158.91 13.75 158.92 14.15Q158.93 14.55 158.96 14.87L158.96 14.87Q159.40 13.71 159.89 12.56Q160.37 11.42 160.85 10.38Q161.32 9.34 161.77 8.43Q162.22 7.53 162.60 6.82Q162.97 6.12 163.25 5.66Q163.53 5.19 163.69 5.04L163.69 5.04Q164.01 5.08 164.35 5.27Q164.70 5.46 164.96 5.75L164.96 5.75Q164.56 6.08 164.04 6.81Q163.52 7.55 162.97 8.51Q162.43 9.48 161.88 10.57Q161.32 11.66 160.85 12.70Q160.37 13.73 160.00 14.63Q159.63 15.53 159.43 16.07L159.43 16.07Q159.07 16.24 158.72 16.24L158.72 16.24Q158.27 16.18 157.87 16.02Q157.47 15.85 157.30 15.61L157.30 15.61Q157.26 15.39 157.23 15.09Q157.21 14.78 157.19 14.49Q157.18 14.20 157.17 13.92Q157.16 13.65 157.16 13.45L157.16 13.45Q157.16 12.21 157.26 10.91Q157.36 9.62 157.50 8.13L157.50 8.13Q157.18 9.09 156.79 10.18Q156.39 11.27 155.97 12.34Q155.54 13.41 155.10 14.38Q154.66 15.36 154.24 16.07L154.24 16.07Q153.87 16.24 153.52 16.24L153.52 16.24Q153.08 16.18 152.68 16.02Q152.28 15.85 152.11 15.61ZM170.59 15.71L170.59 15.71Q170.37 15.68 170.12 15.52Q169.88 15.36 169.81 15.16L169.81 15.16Q169.81 14.99 169.86 14.73Q169.90 14.46 169.97 14.19Q170.04 13.92 170.11 13.67Q170.18 13.43 170.21 13.30L170.21 13.30Q170.38 13.30 170.64 13.38Q170.90 13.47 171.17 13.62Q171.44 13.76 171.69 13.95Q171.93 14.14 172.06 14.34L172.06 14.34Q171.93 14.62 171.74 14.87Q171.54 15.12 171.33 15.31Q171.11 15.50 170.91 15.60Q170.72 15.71 170.59 15.71ZM200.09 5.74L200.09 5.74Q200.13 5.98 200.15 6.07Q200.17 6.16 200.17 6.31L200.17 6.31Q200.17 6.78 199.97 7.18Q199.77 7.57 199.42 7.74L199.42 7.74Q199.14 7.36 198.73 7.09Q198.32 6.82 197.84 6.64Q197.36 6.47 196.84 6.38Q196.32 6.30 195.83 6.30L195.83 6.30Q195.34 6.30 194.92 6.38Q194.49 6.45 194.16 6.59Q193.83 6.72 193.64 6.92Q193.45 7.11 193.45 7.36L193.45 7.36Q193.49 7.67 193.83 7.99Q194.17 8.30 194.66 8.60Q195.15 8.90 195.74 9.20Q196.34 9.49 196.91 9.76L196.91 9.76Q197.62 10.09 198.14 10.38Q198.66 10.67 199.00 11.01Q199.33 11.35 199.50 11.79Q199.67 12.22 199.67 12.84L199.67 12.84Q199.67 13.55 199.43 14.18Q199.19 14.80 198.74 15.26Q198.28 15.72 197.64 15.98Q196.99 16.24 196.20 16.24L196.20 16.24Q195.41 16.24 194.50 16.00Q193.59 15.76 192.80 15.35Q192.01 14.94 191.49 14.40Q190.96 13.86 190.96 13.26L190.96 13.26Q190.96 12.98 191.12 12.54Q191.28 12.11 191.70 11.63L191.70 11.63Q191.74 12.05 192.16 12.63Q192.57 13.20 193.40 13.69L193.40 13.69Q194.17 14.14 194.99 14.34Q195.80 14.55 196.52 14.55L196.52 14.55Q197.30 14.55 197.79 14.35Q198.28 14.15 198.56 13.88Q198.84 13.61 198.95 13.33Q199.07 13.05 199.08 12.88L199.08 12.88Q199.07 12.60 198.82 12.34Q198.58 12.08 198.16 11.84Q197.75 11.59 197.20 11.34Q196.66 11.09 196.07 10.84L196.07 10.84Q195.19 10.44 194.55 10.10Q193.91 9.76 193.50 9.40Q193.09 9.04 192.90 8.65Q192.71 8.26 192.71 7.76L192.71 7.76Q192.71 6.97 193.19 6.27Q193.66 5.57 194.56 5.21L194.56 5.21Q195.01 5.01 195.52 4.93Q196.03 4.84 196.52 4.84L196.52 4.84Q197.44 4.84 198.32 5.10Q199.21 5.35 200.09 5.74ZM213.08 5.75L213.08 5.75Q212.46 6.58 211.96 7.57Q211.46 8.57 211.10 9.61Q210.74 10.65 210.55 11.67Q210.36 12.68 210.36 13.57L210.36 13.57Q210.36 14.66 210.69 15.15Q211.01 15.64 211.79 15.64L211.79 15.64Q212.70 15.64 213.39 15.00Q214.07 14.36 214.68 13.24L214.68 13.24Q215.07 12.52 215.35 11.65Q215.63 10.78 215.80 9.86Q215.98 8.95 216.06 8.02Q216.15 7.08 216.15 6.23L216.15 6.23Q216.15 5.68 216.13 5.43Q216.12 5.18 216.09 5.03L216.09 5.03Q216.13 5.03 216.30 5.05Q216.47 5.08 216.69 5.12Q216.90 5.17 217.12 5.24Q217.34 5.31 217.49 5.39L217.49 5.39Q217.42 6.45 217.23 7.59Q217.04 8.72 216.73 9.83Q216.43 10.93 216.02 11.96Q215.61 12.98 215.11 13.79L215.11 13.79Q214.37 14.99 213.44 15.67Q212.52 16.35 211.26 16.35L211.26 16.35Q209.97 16.35 209.26 15.60Q208.54 14.85 208.54 13.33L208.54 13.33Q208.54 12.45 208.74 11.33Q208.94 10.22 209.27 9.07Q209.59 7.91 210.03 6.81Q210.46 5.71 210.94 4.84L210.94 4.84Q211.18 4.86 211.50 4.94Q211.82 5.03 212.13 5.16Q212.44 5.29 212.70 5.45Q212.95 5.61 213.08 5.75ZM225.04 12.43L225.04 12.43Q225.04 11.45 225.27 10.51Q225.50 9.56 225.92 8.71Q226.34 7.87 226.92 7.16Q227.50 6.45 228.19 5.94Q228.89 5.42 229.67 5.13Q230.45 4.84 231.28 4.84L231.28 4.84Q232.25 4.84 232.79 5.25Q233.32 5.66 233.32 6.38L233.32 6.38Q233.32 6.66 233.25 6.96Q233.17 7.25 233.02 7.54Q232.88 7.83 232.68 8.09Q232.48 8.36 232.25 8.55L232.25 8.55Q231.88 8.50 231.62 8.22Q231.35 7.95 231.28 7.59L231.28 7.59Q231.77 7.18 232.06 6.74Q232.34 6.30 232.34 5.94L232.34 5.94Q232.34 5.32 231.57 5.32L231.57 5.32Q231.25 5.32 230.91 5.45Q230.57 5.59 230.22 5.82Q229.87 6.06 229.54 6.40Q229.21 6.73 228.93 7.14L228.93 7.14Q226.98 9.94 226.98 12.87L226.98 12.87Q226.98 13.90 227.30 14.53Q227.63 15.16 228.16 15.27L228.16 15.27Q228.76 15.13 229.68 14.50Q230.61 13.87 231.70 12.87L231.70 12.87Q231.84 13.01 231.87 13.16L231.87 13.16Q231.46 13.69 231.03 14.18Q230.59 14.67 230.17 15.08Q229.74 15.48 229.33 15.79Q228.91 16.10 228.56 16.27L228.56 16.27Q226.83 16.24 225.93 15.27Q225.04 14.31 225.04 12.43ZM240.42 12.43L240.42 12.43Q240.42 11.45 240.65 10.51Q240.88 9.56 241.30 8.71Q241.72 7.87 242.31 7.16Q242.89 6.45 243.58 5.94Q244.27 5.42 245.06 5.13Q245.84 4.84 246.67 4.84L246.67 4.84Q247.63 4.84 248.17 5.25Q248.71 5.66 248.71 6.38L248.71 6.38Q248.71 6.66 248.63 6.96Q248.56 7.25 248.41 7.54Q248.26 7.83 248.07 8.09Q247.87 8.36 247.63 8.55L247.63 8.55Q247.27 8.50 247.00 8.22Q246.74 7.95 246.67 7.59L246.67 7.59Q247.16 7.18 247.44 6.74Q247.73 6.30 247.73 5.94L247.73 5.94Q247.73 5.32 246.96 5.32L246.96 5.32Q246.64 5.32 246.30 5.45Q245.95 5.59 245.60 5.82Q245.25 6.06 244.92 6.40Q244.59 6.73 244.31 7.14L244.31 7.14Q242.37 9.94 242.37 12.87L242.37 12.87Q242.37 13.90 242.69 14.53Q243.01 15.16 243.54 15.27L243.54 15.27Q244.15 15.13 245.07 14.50Q245.99 13.87 247.09 12.87L247.09 12.87Q247.23 13.01 247.25 13.16L247.25 13.16Q246.85 13.69 246.41 14.18Q245.98 14.67 245.55 15.08Q245.13 15.48 244.71 15.79Q244.30 16.10 243.95 16.27L243.95 16.27Q242.21 16.24 241.32 15.27Q240.42 14.31 240.42 12.43ZM261.02 9.21L261.02 9.21Q261.48 9.21 261.74 9.46Q262.00 9.72 262.00 10.16L262.00 10.16Q262.00 10.28 261.98 10.39Q261.95 10.51 261.93 10.60L261.93 10.60Q261.74 10.57 261.52 10.55Q261.30 10.53 260.99 10.53L260.99 10.53Q260.39 10.53 259.77 10.63Q259.15 10.74 258.59 10.81L258.59 10.81Q258.27 11.55 258.01 12.24Q257.74 12.94 257.55 13.51Q257.36 14.08 257.26 14.50Q257.15 14.92 257.14 15.13L257.14 15.13Q258.27 14.90 259.43 14.73Q260.58 14.56 261.86 14.48L261.86 14.48Q262.01 14.71 262.12 14.99Q262.22 15.27 262.22 15.60L262.22 15.60Q262.22 15.68 262.22 15.78Q262.22 15.88 262.19 15.97L262.19 15.97Q261.80 15.96 261.37 15.95Q260.93 15.95 260.23 15.95L260.23 15.95Q259.77 15.95 259.36 15.97Q258.94 15.99 258.52 16.03Q258.10 16.07 257.64 16.14Q257.17 16.21 256.58 16.31L256.58 16.31Q255.93 16.06 255.33 15.08L255.33 15.08Q255.57 14.57 256.00 13.54Q256.42 12.52 257.08 10.79L257.08 10.79Q256.45 10.60 256.26 10.09L256.26 10.09Q256.33 10.02 256.66 9.92Q257.00 9.81 257.49 9.70L257.49 9.70Q257.70 9.16 257.85 8.75Q257.99 8.34 258.10 7.99Q258.22 7.63 258.31 7.29Q258.40 6.94 258.48 6.54L258.48 6.54Q257.99 6.51 257.71 6.27Q257.43 6.02 257.43 5.63L257.43 5.63Q257.43 5.52 257.47 5.36Q257.50 5.21 257.54 5.10L257.54 5.10Q257.82 5.14 258.08 5.15Q258.34 5.17 258.76 5.17L258.76 5.17Q259.64 5.17 260.41 5.12Q261.18 5.07 261.81 5.01Q262.43 4.96 262.88 4.91Q263.33 4.86 263.56 4.86L263.56 4.86Q263.89 4.86 264.14 5.19Q264.39 5.53 264.52 6.15L264.52 6.15Q264.08 6.10 263.81 6.09Q263.54 6.08 263.33 6.08L263.33 6.08Q262.56 6.08 261.92 6.15Q261.28 6.23 260.69 6.31L260.69 6.31Q260.61 6.44 260.50 6.64Q260.40 6.83 260.23 7.18Q260.06 7.53 259.82 8.06Q259.57 8.60 259.22 9.39L259.22 9.39Q259.76 9.31 260.23 9.26Q260.69 9.21 261.02 9.21ZM276.54 9.21L276.54 9.21Q277.00 9.21 277.26 9.46Q277.52 9.72 277.52 10.16L277.52 10.16Q277.52 10.28 277.50 10.39Q277.48 10.51 277.45 10.60L277.45 10.60Q277.27 10.57 277.05 10.55Q276.82 10.53 276.51 10.53L276.51 10.53Q275.91 10.53 275.30 10.63Q274.68 10.74 274.12 10.81L274.12 10.81Q273.80 11.55 273.53 12.24Q273.27 12.94 273.08 13.51Q272.89 14.08 272.78 14.50Q272.68 14.92 272.66 15.13L272.66 15.13Q273.80 14.90 274.95 14.73Q276.11 14.56 277.38 14.48L277.38 14.48Q277.54 14.71 277.64 14.99Q277.75 15.27 277.75 15.60L277.75 15.60Q277.75 15.68 277.75 15.78Q277.75 15.88 277.72 15.97L277.72 15.97Q277.33 15.96 276.89 15.95Q276.46 15.95 275.76 15.95L275.76 15.95Q275.30 15.95 274.88 15.97Q274.47 15.99 274.05 16.03Q273.63 16.07 273.16 16.14Q272.69 16.21 272.10 16.31L272.10 16.31Q271.46 16.06 270.86 15.08L270.86 15.08Q271.10 14.57 271.52 13.54Q271.95 12.52 272.61 10.79L272.61 10.79Q271.98 10.60 271.78 10.09L271.78 10.09Q271.85 10.02 272.19 9.92Q272.52 9.81 273.01 9.70L273.01 9.70Q273.22 9.16 273.37 8.75Q273.52 8.34 273.63 7.99Q273.74 7.63 273.83 7.29Q273.92 6.94 274.01 6.54L274.01 6.54Q273.52 6.51 273.24 6.27Q272.96 6.02 272.96 5.63L272.96 5.63Q272.96 5.52 272.99 5.36Q273.03 5.21 273.07 5.10L273.07 5.10Q273.35 5.14 273.61 5.15Q273.87 5.17 274.29 5.17L274.29 5.17Q275.17 5.17 275.94 5.12Q276.71 5.07 277.33 5.01Q277.96 4.96 278.40 4.91Q278.85 4.86 279.09 4.86L279.09 4.86Q279.41 4.86 279.66 5.19Q279.92 5.53 280.04 6.15L280.04 6.15Q279.61 6.10 279.33 6.09Q279.06 6.08 278.85 6.08L278.85 6.08Q278.08 6.08 277.44 6.15Q276.81 6.23 276.22 6.31L276.22 6.31Q276.14 6.44 276.03 6.64Q275.93 6.83 275.76 7.18Q275.59 7.53 275.35 8.06Q275.10 8.60 274.75 9.39L274.75 9.39Q275.28 9.31 275.75 9.26Q276.22 9.21 276.54 9.21ZM287.22 14.45L287.22 14.45Q287.43 13.99 287.73 13.26Q288.02 12.53 288.34 11.68Q288.67 10.84 289.00 9.95Q289.34 9.06 289.63 8.26Q289.93 7.46 290.14 6.83Q290.36 6.20 290.46 5.87L290.46 5.87Q289.58 6.23 288.95 6.97Q288.32 7.71 287.99 8.83L287.99 8.83Q287.67 8.72 287.41 8.43Q287.14 8.15 287.06 7.71L287.06 7.71Q287.20 7.07 287.58 6.54Q287.97 6.01 288.55 5.63Q289.14 5.25 289.91 5.05Q290.68 4.84 291.56 4.84L291.56 4.84Q292.68 4.84 293.62 5.17Q294.56 5.50 295.23 6.09Q295.90 6.68 296.28 7.50Q296.66 8.33 296.66 9.34L296.66 9.34Q296.66 10.71 296.16 11.96Q295.65 13.20 294.79 14.15Q293.93 15.11 292.80 15.67Q291.66 16.24 290.42 16.24L290.42 16.24Q289.27 16.24 288.45 15.79Q287.63 15.33 287.22 14.45ZM292.17 5.54L292.17 5.54Q291.47 5.54 290.84 5.74L290.84 5.74Q291.45 5.96 291.86 6.21Q292.26 6.45 292.42 6.59L292.42 6.59Q292.31 6.75 292.09 7.14Q291.87 7.53 291.59 8.09Q291.30 8.65 290.98 9.32Q290.65 9.98 290.35 10.68L290.35 10.68Q289.55 12.46 289.19 13.48Q288.83 14.50 288.83 14.90L288.83 14.90Q289.03 14.97 289.31 14.99Q289.59 15.02 289.91 15.02L289.91 15.02Q291.05 15.02 292.06 14.50Q293.08 13.97 293.84 13.09Q294.60 12.21 295.04 11.04Q295.48 9.87 295.48 8.58L295.48 8.58Q295.48 7.14 294.59 6.34Q293.69 5.54 292.17 5.54Z"></path></g></svg>